<svg xmlns="http://www.w3.org/2000/svg" width="860" height="420" viewBox="0 0 860 420">
  <rect width="100%" height="100%" fill="#ffffff"/>
  <text x="86" y="26" font-family="sans-serif" font-size="18" font-weight="700" fill="#111827">Provider P&amp;L</text>
  <line x1="86" y1="52" x2="116" y2="52" stroke="#2563eb" stroke-width="3"/>
  <text x="122" y="56" font-family="sans-serif" font-size="12" fill="#374151">Provider P&amp;L</text>

  <rect x="86" y="78" width="738" height="264" fill="#ffffff" stroke="#d1d5db"/>
  <line x1="86" y1="342.0" x2="824" y2="342.0" stroke="#e5e7eb" stroke-width="1"/><text x="76" y="346.0" font-family="sans-serif" font-size="11" text-anchor="end" fill="#4b5563">0.0000</text><line x1="86" y1="276.0" x2="824" y2="276.0" stroke="#e5e7eb" stroke-width="1"/><text x="76" y="280.0" font-family="sans-serif" font-size="11" text-anchor="end" fill="#4b5563">8.96</text><line x1="86" y1="210.0" x2="824" y2="210.0" stroke="#e5e7eb" stroke-width="1"/><text x="76" y="214.0" font-family="sans-serif" font-size="11" text-anchor="end" fill="#4b5563">17.9</text><line x1="86" y1="144.0" x2="824" y2="144.0" stroke="#e5e7eb" stroke-width="1"/><text x="76" y="148.0" font-family="sans-serif" font-size="11" text-anchor="end" fill="#4b5563">26.9</text><line x1="86" y1="78.0" x2="824" y2="78.0" stroke="#e5e7eb" stroke-width="1"/><text x="76" y="82.0" font-family="sans-serif" font-size="11" text-anchor="end" fill="#4b5563">35.9</text>
  <line x1="86.0" y1="78" x2="86.0" y2="342" stroke="#f3f4f6" stroke-width="1"/><text x="86.0" y="364" font-family="sans-serif" font-size="11" text-anchor="middle" fill="#4b5563">1</text><line x1="233.6" y1="78" x2="233.6" y2="342" stroke="#f3f4f6" stroke-width="1"/><text x="233.6" y="364" font-family="sans-serif" font-size="11" text-anchor="middle" fill="#4b5563">2</text><line x1="381.2" y1="78" x2="381.2" y2="342" stroke="#f3f4f6" stroke-width="1"/><text x="381.2" y="364" font-family="sans-serif" font-size="11" text-anchor="middle" fill="#4b5563">3</text><line x1="528.8" y1="78" x2="528.8" y2="342" stroke="#f3f4f6" stroke-width="1"/><text x="528.8" y="364" font-family="sans-serif" font-size="11" text-anchor="middle" fill="#4b5563">4</text><line x1="676.4" y1="78" x2="676.4" y2="342" stroke="#f3f4f6" stroke-width="1"/><text x="676.4" y="364" font-family="sans-serif" font-size="11" text-anchor="middle" fill="#4b5563">5</text><line x1="824.0" y1="78" x2="824.0" y2="342" stroke="#f3f4f6" stroke-width="1"/><text x="824.0" y="364" font-family="sans-serif" font-size="11" text-anchor="middle" fill="#4b5563">6</text>
  <line x1="86" y1="342" x2="824" y2="342" stroke="#111827" stroke-width="1.2"/>
  <line x1="86" y1="78" x2="86" y2="342" stroke="#111827" stroke-width="1.2"/>
  <text x="455.0" y="396" font-family="sans-serif" font-size="13" text-anchor="middle" fill="#111827">Epoch</text>
  <text transform="translate(22 210.0) rotate(-90)" font-family="sans-serif" font-size="13" text-anchor="middle" fill="#111827">Provider P&amp;L</text>
  <polyline fill="none" stroke="#2563eb" stroke-width="2.5" points="86.0,92.9 233.6,92.9 381.2,92.9 528.8,92.9 676.4,92.9 824.0,92.9" />

</svg>
