<svg xmlns="http://www.w3.org/2000/svg" width="860" height="420" viewBox="0 0 860 420">
  <rect width="100%" height="100%" fill="#ffffff"/>
  <text x="86" y="26" font-family="sans-serif" font-size="18" font-weight="700" fill="#111827">Audit Budget Spent</text>
  <line x1="86" y1="52" x2="116" y2="52" stroke="#2563eb" stroke-width="3"/>
  <text x="122" y="56" font-family="sans-serif" font-size="12" fill="#374151">Audit Budget Spent</text>
  <line x1="276" y1="52" x2="306" y2="52" stroke="#d97706" stroke-width="3"/>
  <text x="312" y="56" font-family="sans-serif" font-size="12" fill="#374151">Carryover</text>
  <rect x="86" y="78" width="738" height="264" fill="#ffffff" stroke="#d1d5db"/>
  <line x1="86" y1="342.0" x2="824" y2="342.0" stroke="#e5e7eb" stroke-width="1"/><text x="76" y="346.0" font-family="sans-serif" font-size="11" text-anchor="end" fill="#4b5563">0.0000</text><line x1="86" y1="276.0" x2="824" y2="276.0" stroke="#e5e7eb" stroke-width="1"/><text x="76" y="280.0" font-family="sans-serif" font-size="11" text-anchor="end" fill="#4b5563">76.0</text><line x1="86" y1="210.0" x2="824" y2="210.0" stroke="#e5e7eb" stroke-width="1"/><text x="76" y="214.0" font-family="sans-serif" font-size="11" text-anchor="end" fill="#4b5563">152</text><line x1="86" y1="144.0" x2="824" y2="144.0" stroke="#e5e7eb" stroke-width="1"/><text x="76" y="148.0" font-family="sans-serif" font-size="11" text-anchor="end" fill="#4b5563">228</text><line x1="86" y1="78.0" x2="824" y2="78.0" stroke="#e5e7eb" stroke-width="1"/><text x="76" y="82.0" font-family="sans-serif" font-size="11" text-anchor="end" fill="#4b5563">304</text>
  <line x1="86.0" y1="78" x2="86.0" y2="342" stroke="#f3f4f6" stroke-width="1"/><text x="86.0" y="364" font-family="sans-serif" font-size="11" text-anchor="middle" fill="#4b5563">1</text><line x1="246.4" y1="78" x2="246.4" y2="342" stroke="#f3f4f6" stroke-width="1"/><text x="246.4" y="364" font-family="sans-serif" font-size="11" text-anchor="middle" fill="#4b5563">6</text><line x1="374.8" y1="78" x2="374.8" y2="342" stroke="#f3f4f6" stroke-width="1"/><text x="374.8" y="364" font-family="sans-serif" font-size="11" text-anchor="middle" fill="#4b5563">10</text><line x1="535.2" y1="78" x2="535.2" y2="342" stroke="#f3f4f6" stroke-width="1"/><text x="535.2" y="364" font-family="sans-serif" font-size="11" text-anchor="middle" fill="#4b5563">15</text><line x1="663.6" y1="78" x2="663.6" y2="342" stroke="#f3f4f6" stroke-width="1"/><text x="663.6" y="364" font-family="sans-serif" font-size="11" text-anchor="middle" fill="#4b5563">19</text><line x1="824.0" y1="78" x2="824.0" y2="342" stroke="#f3f4f6" stroke-width="1"/><text x="824.0" y="364" font-family="sans-serif" font-size="11" text-anchor="middle" fill="#4b5563">24</text>
  <line x1="86" y1="342" x2="824" y2="342" stroke="#111827" stroke-width="1.2"/>
  <line x1="86" y1="78" x2="86" y2="342" stroke="#111827" stroke-width="1.2"/>
  <text x="455.0" y="396" font-family="sans-serif" font-size="13" text-anchor="middle" fill="#111827">Epoch</text>
  <text transform="translate(22 210.0) rotate(-90)" font-family="sans-serif" font-size="13" text-anchor="middle" fill="#111827">Audit Budget Spent</text>
  <polyline fill="none" stroke="#2563eb" stroke-width="2.5" points="86.0,338.8 118.1,339.6 150.2,340.0 182.3,340.1 214.3,339.2 246.4,340.1 278.5,339.1 310.6,290.7 342.7,293.6 374.8,297.2 406.9,300.0 439.0,302.2 471.0,340.1 503.1,339.5 535.2,339.2 567.3,340.1 599.4,340.4 631.5,339.4 663.6,339.4 695.7,339.2 727.7,339.9 759.8,340.1 791.9,339.2 824.0,338.6" />
  <polyline fill="none" stroke="#d97706" stroke-width="2.5" points="86.0,323.5 118.1,304.1 150.2,284.5 182.3,264.7 214.3,245.7 246.4,225.9 278.5,207.1 310.6,236.7 342.7,263.4 374.8,286.4 406.9,306.7 439.0,324.8 471.0,305.0 503.1,285.7 535.2,266.9 567.3,247.0 599.4,226.9 631.5,207.7 663.6,188.6 695.7,169.7 727.7,150.1 759.8,130.2 791.9,111.3 824.0,92.9" />
</svg>
