<svg xmlns="http://www.w3.org/2000/svg" width="860" height="420" viewBox="0 0 860 420">
  <rect width="100%" height="100%" fill="#ffffff"/>
  <text x="86" y="26" font-family="sans-serif" font-size="18" font-weight="700" fill="#111827">Top Operator Assignment Share BPS</text>
  <line x1="86" y1="52" x2="116" y2="52" stroke="#2563eb" stroke-width="3"/>
  <text x="122" y="56" font-family="sans-serif" font-size="12" fill="#374151">Top Operator Assignment Share BPS</text>
  <line x1="276" y1="52" x2="306" y2="52" stroke="#d97706" stroke-width="3"/>
  <text x="312" y="56" font-family="sans-serif" font-size="12" fill="#374151">Cap Violations</text>
  <rect x="86" y="78" width="738" height="264" fill="#ffffff" stroke="#d1d5db"/>
  <line x1="86" y1="342.0" x2="824" y2="342.0" stroke="#e5e7eb" stroke-width="1"/><text x="76" y="346.0" font-family="sans-serif" font-size="11" text-anchor="end" fill="#4b5563">0.0000</text><line x1="86" y1="276.0" x2="824" y2="276.0" stroke="#e5e7eb" stroke-width="1"/><text x="76" y="280.0" font-family="sans-serif" font-size="11" text-anchor="end" fill="#4b5563">3.44</text><line x1="86" y1="210.0" x2="824" y2="210.0" stroke="#e5e7eb" stroke-width="1"/><text x="76" y="214.0" font-family="sans-serif" font-size="11" text-anchor="end" fill="#4b5563">6.89</text><line x1="86" y1="144.0" x2="824" y2="144.0" stroke="#e5e7eb" stroke-width="1"/><text x="76" y="148.0" font-family="sans-serif" font-size="11" text-anchor="end" fill="#4b5563">10.3</text><line x1="86" y1="78.0" x2="824" y2="78.0" stroke="#e5e7eb" stroke-width="1"/><text x="76" y="82.0" font-family="sans-serif" font-size="11" text-anchor="end" fill="#4b5563">13.8</text>
  <line x1="86.0" y1="78" x2="86.0" y2="342" stroke="#f3f4f6" stroke-width="1"/><text x="86.0" y="364" font-family="sans-serif" font-size="11" text-anchor="middle" fill="#4b5563">1</text><line x1="246.4" y1="78" x2="246.4" y2="342" stroke="#f3f4f6" stroke-width="1"/><text x="246.4" y="364" font-family="sans-serif" font-size="11" text-anchor="middle" fill="#4b5563">6</text><line x1="374.8" y1="78" x2="374.8" y2="342" stroke="#f3f4f6" stroke-width="1"/><text x="374.8" y="364" font-family="sans-serif" font-size="11" text-anchor="middle" fill="#4b5563">10</text><line x1="535.2" y1="78" x2="535.2" y2="342" stroke="#f3f4f6" stroke-width="1"/><text x="535.2" y="364" font-family="sans-serif" font-size="11" text-anchor="middle" fill="#4b5563">15</text><line x1="663.6" y1="78" x2="663.6" y2="342" stroke="#f3f4f6" stroke-width="1"/><text x="663.6" y="364" font-family="sans-serif" font-size="11" text-anchor="middle" fill="#4b5563">19</text><line x1="824.0" y1="78" x2="824.0" y2="342" stroke="#f3f4f6" stroke-width="1"/><text x="824.0" y="364" font-family="sans-serif" font-size="11" text-anchor="middle" fill="#4b5563">24</text>
  <line x1="86" y1="342" x2="824" y2="342" stroke="#111827" stroke-width="1.2"/>
  <line x1="86" y1="78" x2="86" y2="342" stroke="#111827" stroke-width="1.2"/>
  <text x="455.0" y="396" font-family="sans-serif" font-size="13" text-anchor="middle" fill="#111827">Epoch</text>
  <text transform="translate(22 210.0) rotate(-90)" font-family="sans-serif" font-size="13" text-anchor="middle" fill="#111827">Top Operator Assignment Share BPS</text>
  <polyline fill="none" stroke="#2563eb" stroke-width="2.5" points="86.0,169.6 118.1,169.6 150.2,169.6 182.3,150.4 214.3,150.4 246.4,150.4 278.5,150.4 310.6,150.4 342.7,131.3 374.8,131.3 406.9,131.3 439.0,131.3 471.0,131.3 503.1,131.3 535.2,112.1 567.3,112.1 599.4,112.1 631.5,112.1 663.6,112.1 695.7,92.9 727.7,92.9 759.8,92.9 791.9,92.9 824.0,92.9" />
  <polyline fill="none" stroke="#d97706" stroke-width="2.5" points="86.0,342.0 118.1,342.0 150.2,342.0 182.3,342.0 214.3,342.0 246.4,342.0 278.5,342.0 310.6,342.0 342.7,342.0 374.8,342.0 406.9,342.0 439.0,342.0 471.0,342.0 503.1,342.0 535.2,342.0 567.3,342.0 599.4,342.0 631.5,342.0 663.6,342.0 695.7,342.0 727.7,342.0 759.8,342.0 791.9,342.0 824.0,342.0" />
</svg>
