<svg xmlns="http://www.w3.org/2000/svg" width="860" height="420" viewBox="0 0 860 420">
  <rect width="100%" height="100%" fill="#ffffff"/>
  <text x="86" y="26" font-family="sans-serif" font-size="18" font-weight="700" fill="#111827">Provider Cost</text>
  <line x1="86" y1="52" x2="116" y2="52" stroke="#2563eb" stroke-width="3"/>
  <text x="122" y="56" font-family="sans-serif" font-size="12" fill="#374151">Provider Cost</text>
  <line x1="276" y1="52" x2="306" y2="52" stroke="#d97706" stroke-width="3"/>
  <text x="312" y="56" font-family="sans-serif" font-size="12" fill="#374151">Provider Revenue</text>
  <rect x="86" y="78" width="738" height="264" fill="#ffffff" stroke="#d1d5db"/>
  <line x1="86" y1="342.0" x2="824" y2="342.0" stroke="#e5e7eb" stroke-width="1"/><text x="76" y="346.0" font-family="sans-serif" font-size="11" text-anchor="end" fill="#4b5563">0.0000</text><line x1="86" y1="276.0" x2="824" y2="276.0" stroke="#e5e7eb" stroke-width="1"/><text x="76" y="280.0" font-family="sans-serif" font-size="11" text-anchor="end" fill="#4b5563">368</text><line x1="86" y1="210.0" x2="824" y2="210.0" stroke="#e5e7eb" stroke-width="1"/><text x="76" y="214.0" font-family="sans-serif" font-size="11" text-anchor="end" fill="#4b5563">736</text><line x1="86" y1="144.0" x2="824" y2="144.0" stroke="#e5e7eb" stroke-width="1"/><text x="76" y="148.0" font-family="sans-serif" font-size="11" text-anchor="end" fill="#4b5563">1,103</text><line x1="86" y1="78.0" x2="824" y2="78.0" stroke="#e5e7eb" stroke-width="1"/><text x="76" y="82.0" font-family="sans-serif" font-size="11" text-anchor="end" fill="#4b5563">1,471</text>
  <line x1="86.0" y1="78" x2="86.0" y2="342" stroke="#f3f4f6" stroke-width="1"/><text x="86.0" y="364" font-family="sans-serif" font-size="11" text-anchor="middle" fill="#4b5563">1</text><line x1="246.4" y1="78" x2="246.4" y2="342" stroke="#f3f4f6" stroke-width="1"/><text x="246.4" y="364" font-family="sans-serif" font-size="11" text-anchor="middle" fill="#4b5563">6</text><line x1="374.8" y1="78" x2="374.8" y2="342" stroke="#f3f4f6" stroke-width="1"/><text x="374.8" y="364" font-family="sans-serif" font-size="11" text-anchor="middle" fill="#4b5563">10</text><line x1="535.2" y1="78" x2="535.2" y2="342" stroke="#f3f4f6" stroke-width="1"/><text x="535.2" y="364" font-family="sans-serif" font-size="11" text-anchor="middle" fill="#4b5563">15</text><line x1="663.6" y1="78" x2="663.6" y2="342" stroke="#f3f4f6" stroke-width="1"/><text x="663.6" y="364" font-family="sans-serif" font-size="11" text-anchor="middle" fill="#4b5563">19</text><line x1="824.0" y1="78" x2="824.0" y2="342" stroke="#f3f4f6" stroke-width="1"/><text x="824.0" y="364" font-family="sans-serif" font-size="11" text-anchor="middle" fill="#4b5563">24</text>
  <line x1="86" y1="342" x2="824" y2="342" stroke="#111827" stroke-width="1.2"/>
  <line x1="86" y1="78" x2="86" y2="342" stroke="#111827" stroke-width="1.2"/>
  <text x="455.0" y="396" font-family="sans-serif" font-size="13" text-anchor="middle" fill="#111827">Epoch</text>
  <text transform="translate(22 210.0) rotate(-90)" font-family="sans-serif" font-size="13" text-anchor="middle" fill="#111827">Provider Cost</text>
  <polyline fill="none" stroke="#2563eb" stroke-width="2.5" points="86.0,281.8 118.1,281.8 150.2,281.8 182.3,281.8 214.3,281.8 246.4,281.8 278.5,281.8 310.6,281.9 342.7,281.9 374.8,281.9 406.9,281.9 439.0,281.8 471.0,281.8 503.1,281.8 535.2,281.8 567.3,281.8 599.4,281.7 631.5,281.8 663.6,281.8 695.7,281.8 727.7,281.8 759.8,281.8 791.9,281.7 824.0,281.8" />
  <polyline fill="none" stroke="#d97706" stroke-width="2.5" points="86.0,197.1 118.1,194.2 150.2,191.4 182.3,188.5 214.3,185.4 246.4,181.8 278.5,178.5 310.6,187.6 342.7,183.8 374.8,179.5 406.9,173.7 439.0,169.0 471.0,154.5 503.1,150.7 535.2,145.0 567.3,139.6 599.4,134.3 631.5,128.7 663.6,123.5 695.7,117.6 727.7,111.7 759.8,105.7 791.9,99.2 824.0,92.9" />
</svg>
