<svg xmlns="http://www.w3.org/2000/svg" width="860" height="420" viewBox="0 0 860 420">
  <rect width="100%" height="100%" fill="#ffffff"/>
  <text x="86" y="26" font-family="sans-serif" font-size="18" font-weight="700" fill="#111827">Provider P&amp;L</text>
  <line x1="86" y1="52" x2="116" y2="52" stroke="#2563eb" stroke-width="3"/>
  <text x="122" y="56" font-family="sans-serif" font-size="12" fill="#374151">Provider P&amp;L</text>

  <rect x="86" y="78" width="738" height="264" fill="#ffffff" stroke="#d1d5db"/>
  <line x1="86" y1="342.0" x2="824" y2="342.0" stroke="#e5e7eb" stroke-width="1"/><text x="76" y="346.0" font-family="sans-serif" font-size="11" text-anchor="end" fill="#4b5563">0.0000</text><line x1="86" y1="276.0" x2="824" y2="276.0" stroke="#e5e7eb" stroke-width="1"/><text x="76" y="280.0" font-family="sans-serif" font-size="11" text-anchor="end" fill="#4b5563">4,503</text><line x1="86" y1="210.0" x2="824" y2="210.0" stroke="#e5e7eb" stroke-width="1"/><text x="76" y="214.0" font-family="sans-serif" font-size="11" text-anchor="end" fill="#4b5563">9,005</text><line x1="86" y1="144.0" x2="824" y2="144.0" stroke="#e5e7eb" stroke-width="1"/><text x="76" y="148.0" font-family="sans-serif" font-size="11" text-anchor="end" fill="#4b5563">13,508</text><line x1="86" y1="78.0" x2="824" y2="78.0" stroke="#e5e7eb" stroke-width="1"/><text x="76" y="82.0" font-family="sans-serif" font-size="11" text-anchor="end" fill="#4b5563">18,010</text>
  <line x1="86.0" y1="78" x2="86.0" y2="342" stroke="#f3f4f6" stroke-width="1"/><text x="86.0" y="364" font-family="sans-serif" font-size="11" text-anchor="middle" fill="#4b5563">1</text><line x1="246.4" y1="78" x2="246.4" y2="342" stroke="#f3f4f6" stroke-width="1"/><text x="246.4" y="364" font-family="sans-serif" font-size="11" text-anchor="middle" fill="#4b5563">6</text><line x1="374.8" y1="78" x2="374.8" y2="342" stroke="#f3f4f6" stroke-width="1"/><text x="374.8" y="364" font-family="sans-serif" font-size="11" text-anchor="middle" fill="#4b5563">10</text><line x1="535.2" y1="78" x2="535.2" y2="342" stroke="#f3f4f6" stroke-width="1"/><text x="535.2" y="364" font-family="sans-serif" font-size="11" text-anchor="middle" fill="#4b5563">15</text><line x1="663.6" y1="78" x2="663.6" y2="342" stroke="#f3f4f6" stroke-width="1"/><text x="663.6" y="364" font-family="sans-serif" font-size="11" text-anchor="middle" fill="#4b5563">19</text><line x1="824.0" y1="78" x2="824.0" y2="342" stroke="#f3f4f6" stroke-width="1"/><text x="824.0" y="364" font-family="sans-serif" font-size="11" text-anchor="middle" fill="#4b5563">24</text>
  <line x1="86" y1="342" x2="824" y2="342" stroke="#111827" stroke-width="1.2"/>
  <line x1="86" y1="78" x2="86" y2="342" stroke="#111827" stroke-width="1.2"/>
  <text x="455.0" y="396" font-family="sans-serif" font-size="13" text-anchor="middle" fill="#111827">Epoch</text>
  <text transform="translate(22 210.0) rotate(-90)" font-family="sans-serif" font-size="13" text-anchor="middle" fill="#111827">Provider P&amp;L</text>
  <polyline fill="none" stroke="#2563eb" stroke-width="2.5" points="86.0,335.1 118.1,327.9 150.2,320.5 182.3,312.9 214.3,305.0 246.4,296.9 278.5,288.4 310.6,280.7 342.7,272.7 374.8,264.4 406.9,255.5 439.0,246.3 471.0,235.9 503.1,225.2 535.2,214.0 567.3,202.4 599.4,190.4 631.5,177.9 663.6,165.0 695.7,151.5 727.7,137.7 759.8,123.3 791.9,108.4 824.0,92.9" />

</svg>
