<svg xmlns="http://www.w3.org/2000/svg" width="860" height="420" viewBox="0 0 860 420">
  <rect width="100%" height="100%" fill="#ffffff"/>
  <text x="86" y="26" font-family="sans-serif" font-size="18" font-weight="700" fill="#111827">Audit Budget Spent</text>
  <line x1="86" y1="52" x2="116" y2="52" stroke="#2563eb" stroke-width="3"/>
  <text x="122" y="56" font-family="sans-serif" font-size="12" fill="#374151">Audit Budget Spent</text>
  <line x1="276" y1="52" x2="306" y2="52" stroke="#d97706" stroke-width="3"/>
  <text x="312" y="56" font-family="sans-serif" font-size="12" fill="#374151">Carryover</text>
  <rect x="86" y="78" width="738" height="264" fill="#ffffff" stroke="#d1d5db"/>
  <line x1="86" y1="342.0" x2="824" y2="342.0" stroke="#e5e7eb" stroke-width="1"/><text x="76" y="346.0" font-family="sans-serif" font-size="11" text-anchor="end" fill="#4b5563">0.0000</text><line x1="86" y1="276.0" x2="824" y2="276.0" stroke="#e5e7eb" stroke-width="1"/><text x="76" y="280.0" font-family="sans-serif" font-size="11" text-anchor="end" fill="#4b5563">3.56</text><line x1="86" y1="210.0" x2="824" y2="210.0" stroke="#e5e7eb" stroke-width="1"/><text x="76" y="214.0" font-family="sans-serif" font-size="11" text-anchor="end" fill="#4b5563">7.12</text><line x1="86" y1="144.0" x2="824" y2="144.0" stroke="#e5e7eb" stroke-width="1"/><text x="76" y="148.0" font-family="sans-serif" font-size="11" text-anchor="end" fill="#4b5563">10.7</text><line x1="86" y1="78.0" x2="824" y2="78.0" stroke="#e5e7eb" stroke-width="1"/><text x="76" y="82.0" font-family="sans-serif" font-size="11" text-anchor="end" fill="#4b5563">14.2</text>
  <line x1="86.0" y1="78" x2="86.0" y2="342" stroke="#f3f4f6" stroke-width="1"/><text x="86.0" y="364" font-family="sans-serif" font-size="11" text-anchor="middle" fill="#4b5563">1</text><line x1="256.3" y1="78" x2="256.3" y2="342" stroke="#f3f4f6" stroke-width="1"/><text x="256.3" y="364" font-family="sans-serif" font-size="11" text-anchor="middle" fill="#4b5563">4</text><line x1="369.8" y1="78" x2="369.8" y2="342" stroke="#f3f4f6" stroke-width="1"/><text x="369.8" y="364" font-family="sans-serif" font-size="11" text-anchor="middle" fill="#4b5563">6</text><line x1="540.2" y1="78" x2="540.2" y2="342" stroke="#f3f4f6" stroke-width="1"/><text x="540.2" y="364" font-family="sans-serif" font-size="11" text-anchor="middle" fill="#4b5563">9</text><line x1="653.7" y1="78" x2="653.7" y2="342" stroke="#f3f4f6" stroke-width="1"/><text x="653.7" y="364" font-family="sans-serif" font-size="11" text-anchor="middle" fill="#4b5563">11</text><line x1="824.0" y1="78" x2="824.0" y2="342" stroke="#f3f4f6" stroke-width="1"/><text x="824.0" y="364" font-family="sans-serif" font-size="11" text-anchor="middle" fill="#4b5563">14</text>
  <line x1="86" y1="342" x2="824" y2="342" stroke="#111827" stroke-width="1.2"/>
  <line x1="86" y1="78" x2="86" y2="342" stroke="#111827" stroke-width="1.2"/>
  <text x="455.0" y="396" font-family="sans-serif" font-size="13" text-anchor="middle" fill="#111827">Epoch</text>
  <text transform="translate(22 210.0) rotate(-90)" font-family="sans-serif" font-size="13" text-anchor="middle" fill="#111827">Audit Budget Spent</text>
  <polyline fill="none" stroke="#2563eb" stroke-width="2.5" points="86.0,342.0 142.8,342.0 199.5,342.0 256.3,342.0 313.1,342.0 369.8,342.0 426.6,342.0 483.4,339.2 540.2,339.2 596.9,339.4 653.7,339.7 710.5,342.0 767.2,342.0 824.0,342.0" />
  <polyline fill="none" stroke="#d97706" stroke-width="2.5" points="86.0,323.5 142.8,304.9 199.5,286.4 256.3,267.8 313.1,249.3 369.8,230.8 426.6,212.2 483.4,196.5 540.2,180.7 596.9,164.8 653.7,148.6 710.5,130.0 767.2,111.5 824.0,92.9" />
</svg>
