<svg xmlns="http://www.w3.org/2000/svg" width="860" height="420" viewBox="0 0 860 420">
  <rect width="100%" height="100%" fill="#ffffff"/>
  <text x="86" y="26" font-family="sans-serif" font-size="18" font-weight="700" fill="#111827">Provider Cost</text>
  <line x1="86" y1="52" x2="116" y2="52" stroke="#2563eb" stroke-width="3"/>
  <text x="122" y="56" font-family="sans-serif" font-size="12" fill="#374151">Provider Cost</text>
  <line x1="276" y1="52" x2="306" y2="52" stroke="#d97706" stroke-width="3"/>
  <text x="312" y="56" font-family="sans-serif" font-size="12" fill="#374151">Provider Revenue</text>
  <rect x="86" y="78" width="738" height="264" fill="#ffffff" stroke="#d1d5db"/>
  <line x1="86" y1="342.0" x2="824" y2="342.0" stroke="#e5e7eb" stroke-width="1"/><text x="76" y="346.0" font-family="sans-serif" font-size="11" text-anchor="end" fill="#4b5563">0.0000</text><line x1="86" y1="276.0" x2="824" y2="276.0" stroke="#e5e7eb" stroke-width="1"/><text x="76" y="280.0" font-family="sans-serif" font-size="11" text-anchor="end" fill="#4b5563">7.63</text><line x1="86" y1="210.0" x2="824" y2="210.0" stroke="#e5e7eb" stroke-width="1"/><text x="76" y="214.0" font-family="sans-serif" font-size="11" text-anchor="end" fill="#4b5563">15.3</text><line x1="86" y1="144.0" x2="824" y2="144.0" stroke="#e5e7eb" stroke-width="1"/><text x="76" y="148.0" font-family="sans-serif" font-size="11" text-anchor="end" fill="#4b5563">22.9</text><line x1="86" y1="78.0" x2="824" y2="78.0" stroke="#e5e7eb" stroke-width="1"/><text x="76" y="82.0" font-family="sans-serif" font-size="11" text-anchor="end" fill="#4b5563">30.5</text>
  <line x1="86.0" y1="78" x2="86.0" y2="342" stroke="#f3f4f6" stroke-width="1"/><text x="86.0" y="364" font-family="sans-serif" font-size="11" text-anchor="middle" fill="#4b5563">1</text><line x1="256.3" y1="78" x2="256.3" y2="342" stroke="#f3f4f6" stroke-width="1"/><text x="256.3" y="364" font-family="sans-serif" font-size="11" text-anchor="middle" fill="#4b5563">4</text><line x1="369.8" y1="78" x2="369.8" y2="342" stroke="#f3f4f6" stroke-width="1"/><text x="369.8" y="364" font-family="sans-serif" font-size="11" text-anchor="middle" fill="#4b5563">6</text><line x1="540.2" y1="78" x2="540.2" y2="342" stroke="#f3f4f6" stroke-width="1"/><text x="540.2" y="364" font-family="sans-serif" font-size="11" text-anchor="middle" fill="#4b5563">9</text><line x1="653.7" y1="78" x2="653.7" y2="342" stroke="#f3f4f6" stroke-width="1"/><text x="653.7" y="364" font-family="sans-serif" font-size="11" text-anchor="middle" fill="#4b5563">11</text><line x1="824.0" y1="78" x2="824.0" y2="342" stroke="#f3f4f6" stroke-width="1"/><text x="824.0" y="364" font-family="sans-serif" font-size="11" text-anchor="middle" fill="#4b5563">14</text>
  <line x1="86" y1="342" x2="824" y2="342" stroke="#111827" stroke-width="1.2"/>
  <line x1="86" y1="78" x2="86" y2="342" stroke="#111827" stroke-width="1.2"/>
  <text x="455.0" y="396" font-family="sans-serif" font-size="13" text-anchor="middle" fill="#111827">Epoch</text>
  <text transform="translate(22 210.0) rotate(-90)" font-family="sans-serif" font-size="13" text-anchor="middle" fill="#111827">Provider Cost</text>
  <polyline fill="none" stroke="#2563eb" stroke-width="2.5" points="86.0,297.0 142.8,297.0 199.5,258.3 256.3,257.1 313.1,258.3 369.8,257.7 426.6,257.8 483.4,269.3 540.2,279.8 596.9,288.8 653.7,298.2 710.5,297.0 767.2,297.0 824.0,297.0" />
  <polyline fill="none" stroke="#d97706" stroke-width="2.5" points="86.0,120.3 142.8,118.5 199.5,116.6 256.3,114.7 313.1,112.8 369.8,110.8 426.6,108.8 483.4,112.2 540.2,115.6 596.9,112.7 653.7,109.7 710.5,102.6 767.2,95.4 824.0,92.9" />
</svg>
