<svg xmlns="http://www.w3.org/2000/svg" width="860" height="420" viewBox="0 0 860 420">
  <rect width="100%" height="100%" fill="#ffffff"/>
  <text x="86" y="26" font-family="sans-serif" font-size="18" font-weight="700" fill="#111827">Burn / Mint Ratio</text>
  <line x1="86" y1="52" x2="116" y2="52" stroke="#2563eb" stroke-width="3"/>
  <text x="122" y="56" font-family="sans-serif" font-size="12" fill="#374151">Burn / Mint Ratio</text>

  <rect x="86" y="78" width="738" height="264" fill="#ffffff" stroke="#d1d5db"/>
  <line x1="86" y1="342.0" x2="824" y2="342.0" stroke="#e5e7eb" stroke-width="1"/><text x="76" y="346.0" font-family="sans-serif" font-size="11" text-anchor="end" fill="#4b5563">0.0000</text><line x1="86" y1="276.0" x2="824" y2="276.0" stroke="#e5e7eb" stroke-width="1"/><text x="76" y="280.0" font-family="sans-serif" font-size="11" text-anchor="end" fill="#4b5563">0.0069</text><line x1="86" y1="210.0" x2="824" y2="210.0" stroke="#e5e7eb" stroke-width="1"/><text x="76" y="214.0" font-family="sans-serif" font-size="11" text-anchor="end" fill="#4b5563">0.0138</text><line x1="86" y1="144.0" x2="824" y2="144.0" stroke="#e5e7eb" stroke-width="1"/><text x="76" y="148.0" font-family="sans-serif" font-size="11" text-anchor="end" fill="#4b5563">0.0206</text><line x1="86" y1="78.0" x2="824" y2="78.0" stroke="#e5e7eb" stroke-width="1"/><text x="76" y="82.0" font-family="sans-serif" font-size="11" text-anchor="end" fill="#4b5563">0.0275</text>
  <line x1="86.0" y1="78" x2="86.0" y2="342" stroke="#f3f4f6" stroke-width="1"/><text x="86.0" y="364" font-family="sans-serif" font-size="11" text-anchor="middle" fill="#4b5563">1</text><line x1="250.0" y1="78" x2="250.0" y2="342" stroke="#f3f4f6" stroke-width="1"/><text x="250.0" y="364" font-family="sans-serif" font-size="11" text-anchor="middle" fill="#4b5563">3</text><line x1="414.0" y1="78" x2="414.0" y2="342" stroke="#f3f4f6" stroke-width="1"/><text x="414.0" y="364" font-family="sans-serif" font-size="11" text-anchor="middle" fill="#4b5563">5</text><line x1="496.0" y1="78" x2="496.0" y2="342" stroke="#f3f4f6" stroke-width="1"/><text x="496.0" y="364" font-family="sans-serif" font-size="11" text-anchor="middle" fill="#4b5563">6</text><line x1="660.0" y1="78" x2="660.0" y2="342" stroke="#f3f4f6" stroke-width="1"/><text x="660.0" y="364" font-family="sans-serif" font-size="11" text-anchor="middle" fill="#4b5563">8</text><line x1="824.0" y1="78" x2="824.0" y2="342" stroke="#f3f4f6" stroke-width="1"/><text x="824.0" y="364" font-family="sans-serif" font-size="11" text-anchor="middle" fill="#4b5563">10</text>
  <line x1="86" y1="342" x2="824" y2="342" stroke="#111827" stroke-width="1.2"/>
  <line x1="86" y1="78" x2="86" y2="342" stroke="#111827" stroke-width="1.2"/>
  <text x="455.0" y="396" font-family="sans-serif" font-size="13" text-anchor="middle" fill="#111827">Epoch</text>
  <text transform="translate(22 210.0) rotate(-90)" font-family="sans-serif" font-size="13" text-anchor="middle" fill="#111827">Burn / Mint Ratio</text>
  <polyline fill="none" stroke="#2563eb" stroke-width="2.5" points="86.0,92.9 168.0,97.9 250.0,102.8 332.0,107.5 414.0,112.1 496.0,116.6 578.0,121.0 660.0,125.3 742.0,129.5 824.0,133.5" />

</svg>
