<svg xmlns="http://www.w3.org/2000/svg" width="860" height="420" viewBox="0 0 860 420">
  <rect width="100%" height="100%" fill="#ffffff"/>
  <text x="86" y="26" font-family="sans-serif" font-size="18" font-weight="700" fill="#111827">Provider P&amp;L</text>
  <line x1="86" y1="52" x2="116" y2="52" stroke="#2563eb" stroke-width="3"/>
  <text x="122" y="56" font-family="sans-serif" font-size="12" fill="#374151">Provider P&amp;L</text>

  <rect x="86" y="78" width="738" height="264" fill="#ffffff" stroke="#d1d5db"/>
  <line x1="86" y1="342.0" x2="824" y2="342.0" stroke="#e5e7eb" stroke-width="1"/><text x="76" y="346.0" font-family="sans-serif" font-size="11" text-anchor="end" fill="#4b5563">0.0000</text><line x1="86" y1="276.0" x2="824" y2="276.0" stroke="#e5e7eb" stroke-width="1"/><text x="76" y="280.0" font-family="sans-serif" font-size="11" text-anchor="end" fill="#4b5563">527</text><line x1="86" y1="210.0" x2="824" y2="210.0" stroke="#e5e7eb" stroke-width="1"/><text x="76" y="214.0" font-family="sans-serif" font-size="11" text-anchor="end" fill="#4b5563">1,055</text><line x1="86" y1="144.0" x2="824" y2="144.0" stroke="#e5e7eb" stroke-width="1"/><text x="76" y="148.0" font-family="sans-serif" font-size="11" text-anchor="end" fill="#4b5563">1,582</text><line x1="86" y1="78.0" x2="824" y2="78.0" stroke="#e5e7eb" stroke-width="1"/><text x="76" y="82.0" font-family="sans-serif" font-size="11" text-anchor="end" fill="#4b5563">2,110</text>
  <line x1="86.0" y1="78" x2="86.0" y2="342" stroke="#f3f4f6" stroke-width="1"/><text x="86.0" y="364" font-family="sans-serif" font-size="11" text-anchor="middle" fill="#4b5563">1</text><line x1="233.6" y1="78" x2="233.6" y2="342" stroke="#f3f4f6" stroke-width="1"/><text x="233.6" y="364" font-family="sans-serif" font-size="11" text-anchor="middle" fill="#4b5563">4</text><line x1="381.2" y1="78" x2="381.2" y2="342" stroke="#f3f4f6" stroke-width="1"/><text x="381.2" y="364" font-family="sans-serif" font-size="11" text-anchor="middle" fill="#4b5563">7</text><line x1="528.8" y1="78" x2="528.8" y2="342" stroke="#f3f4f6" stroke-width="1"/><text x="528.8" y="364" font-family="sans-serif" font-size="11" text-anchor="middle" fill="#4b5563">10</text><line x1="676.4" y1="78" x2="676.4" y2="342" stroke="#f3f4f6" stroke-width="1"/><text x="676.4" y="364" font-family="sans-serif" font-size="11" text-anchor="middle" fill="#4b5563">13</text><line x1="824.0" y1="78" x2="824.0" y2="342" stroke="#f3f4f6" stroke-width="1"/><text x="824.0" y="364" font-family="sans-serif" font-size="11" text-anchor="middle" fill="#4b5563">16</text>
  <line x1="86" y1="342" x2="824" y2="342" stroke="#111827" stroke-width="1.2"/>
  <line x1="86" y1="78" x2="86" y2="342" stroke="#111827" stroke-width="1.2"/>
  <text x="455.0" y="396" font-family="sans-serif" font-size="13" text-anchor="middle" fill="#111827">Epoch</text>
  <text transform="translate(22 210.0) rotate(-90)" font-family="sans-serif" font-size="13" text-anchor="middle" fill="#111827">Provider P&amp;L</text>
  <polyline fill="none" stroke="#2563eb" stroke-width="2.5" points="86.0,329.2 135.2,316.2 184.4,302.7 233.6,289.0 282.8,274.8 332.0,260.3 381.2,245.4 430.4,230.2 479.6,214.5 528.8,198.4 578.0,182.0 627.2,165.1 676.4,147.7 725.6,129.9 774.8,111.7 824.0,92.9" />

</svg>
