<svg xmlns="http://www.w3.org/2000/svg" width="860" height="420" viewBox="0 0 860 420">
  <rect width="100%" height="100%" fill="#ffffff"/>
  <text x="86" y="26" font-family="sans-serif" font-size="18" font-weight="700" fill="#111827">Burn / Mint Ratio</text>
  <line x1="86" y1="52" x2="116" y2="52" stroke="#2563eb" stroke-width="3"/>
  <text x="122" y="56" font-family="sans-serif" font-size="12" fill="#374151">Burn / Mint Ratio</text>

  <rect x="86" y="78" width="738" height="264" fill="#ffffff" stroke="#d1d5db"/>
  <line x1="86" y1="342.0" x2="824" y2="342.0" stroke="#e5e7eb" stroke-width="1"/><text x="76" y="346.0" font-family="sans-serif" font-size="11" text-anchor="end" fill="#4b5563">0.0000</text><line x1="86" y1="276.0" x2="824" y2="276.0" stroke="#e5e7eb" stroke-width="1"/><text x="76" y="280.0" font-family="sans-serif" font-size="11" text-anchor="end" fill="#4b5563">0.0159</text><line x1="86" y1="210.0" x2="824" y2="210.0" stroke="#e5e7eb" stroke-width="1"/><text x="76" y="214.0" font-family="sans-serif" font-size="11" text-anchor="end" fill="#4b5563">0.0318</text><line x1="86" y1="144.0" x2="824" y2="144.0" stroke="#e5e7eb" stroke-width="1"/><text x="76" y="148.0" font-family="sans-serif" font-size="11" text-anchor="end" fill="#4b5563">0.0477</text><line x1="86" y1="78.0" x2="824" y2="78.0" stroke="#e5e7eb" stroke-width="1"/><text x="76" y="82.0" font-family="sans-serif" font-size="11" text-anchor="end" fill="#4b5563">0.0636</text>
  <line x1="86.0" y1="78" x2="86.0" y2="342" stroke="#f3f4f6" stroke-width="1"/><text x="86.0" y="364" font-family="sans-serif" font-size="11" text-anchor="middle" fill="#4b5563">1</text><line x1="220.2" y1="78" x2="220.2" y2="342" stroke="#f3f4f6" stroke-width="1"/><text x="220.2" y="364" font-family="sans-serif" font-size="11" text-anchor="middle" fill="#4b5563">3</text><line x1="354.4" y1="78" x2="354.4" y2="342" stroke="#f3f4f6" stroke-width="1"/><text x="354.4" y="364" font-family="sans-serif" font-size="11" text-anchor="middle" fill="#4b5563">5</text><line x1="555.6" y1="78" x2="555.6" y2="342" stroke="#f3f4f6" stroke-width="1"/><text x="555.6" y="364" font-family="sans-serif" font-size="11" text-anchor="middle" fill="#4b5563">8</text><line x1="689.8" y1="78" x2="689.8" y2="342" stroke="#f3f4f6" stroke-width="1"/><text x="689.8" y="364" font-family="sans-serif" font-size="11" text-anchor="middle" fill="#4b5563">10</text><line x1="824.0" y1="78" x2="824.0" y2="342" stroke="#f3f4f6" stroke-width="1"/><text x="824.0" y="364" font-family="sans-serif" font-size="11" text-anchor="middle" fill="#4b5563">12</text>
  <line x1="86" y1="342" x2="824" y2="342" stroke="#111827" stroke-width="1.2"/>
  <line x1="86" y1="78" x2="86" y2="342" stroke="#111827" stroke-width="1.2"/>
  <text x="455.0" y="396" font-family="sans-serif" font-size="13" text-anchor="middle" fill="#111827">Epoch</text>
  <text transform="translate(22 210.0) rotate(-90)" font-family="sans-serif" font-size="13" text-anchor="middle" fill="#111827">Burn / Mint Ratio</text>
  <polyline fill="none" stroke="#2563eb" stroke-width="2.5" points="86.0,228.4 153.1,226.1 220.2,223.8 287.3,221.4 354.4,219.0 421.5,107.4 488.5,98.4 555.6,95.7 622.7,92.9 689.8,202.1 756.9,202.9 824.0,200.0" />

</svg>
