<svg xmlns="http://www.w3.org/2000/svg" width="860" height="420" viewBox="0 0 860 420">
  <rect width="100%" height="100%" fill="#ffffff"/>
  <text x="86" y="26" font-family="sans-serif" font-size="18" font-weight="700" fill="#111827">Churned Providers</text>
  <line x1="86" y1="52" x2="116" y2="52" stroke="#2563eb" stroke-width="3"/>
  <text x="122" y="56" font-family="sans-serif" font-size="12" fill="#374151">Churned Providers</text>
  <line x1="276" y1="52" x2="306" y2="52" stroke="#d97706" stroke-width="3"/>
  <text x="312" y="56" font-family="sans-serif" font-size="12" fill="#374151">Provider Churn Events</text>
  <rect x="86" y="78" width="738" height="264" fill="#ffffff" stroke="#d1d5db"/>
  <line x1="86" y1="342.0" x2="824" y2="342.0" stroke="#e5e7eb" stroke-width="1"/><text x="76" y="346.0" font-family="sans-serif" font-size="11" text-anchor="end" fill="#4b5563">0.0000</text><line x1="86" y1="276.0" x2="824" y2="276.0" stroke="#e5e7eb" stroke-width="1"/><text x="76" y="280.0" font-family="sans-serif" font-size="11" text-anchor="end" fill="#4b5563">2.12</text><line x1="86" y1="210.0" x2="824" y2="210.0" stroke="#e5e7eb" stroke-width="1"/><text x="76" y="214.0" font-family="sans-serif" font-size="11" text-anchor="end" fill="#4b5563">4.24</text><line x1="86" y1="144.0" x2="824" y2="144.0" stroke="#e5e7eb" stroke-width="1"/><text x="76" y="148.0" font-family="sans-serif" font-size="11" text-anchor="end" fill="#4b5563">6.36</text><line x1="86" y1="78.0" x2="824" y2="78.0" stroke="#e5e7eb" stroke-width="1"/><text x="76" y="82.0" font-family="sans-serif" font-size="11" text-anchor="end" fill="#4b5563">8.48</text>
  <line x1="86.0" y1="78" x2="86.0" y2="342" stroke="#f3f4f6" stroke-width="1"/><text x="86.0" y="364" font-family="sans-serif" font-size="11" text-anchor="middle" fill="#4b5563">1</text><line x1="220.2" y1="78" x2="220.2" y2="342" stroke="#f3f4f6" stroke-width="1"/><text x="220.2" y="364" font-family="sans-serif" font-size="11" text-anchor="middle" fill="#4b5563">3</text><line x1="354.4" y1="78" x2="354.4" y2="342" stroke="#f3f4f6" stroke-width="1"/><text x="354.4" y="364" font-family="sans-serif" font-size="11" text-anchor="middle" fill="#4b5563">5</text><line x1="555.6" y1="78" x2="555.6" y2="342" stroke="#f3f4f6" stroke-width="1"/><text x="555.6" y="364" font-family="sans-serif" font-size="11" text-anchor="middle" fill="#4b5563">8</text><line x1="689.8" y1="78" x2="689.8" y2="342" stroke="#f3f4f6" stroke-width="1"/><text x="689.8" y="364" font-family="sans-serif" font-size="11" text-anchor="middle" fill="#4b5563">10</text><line x1="824.0" y1="78" x2="824.0" y2="342" stroke="#f3f4f6" stroke-width="1"/><text x="824.0" y="364" font-family="sans-serif" font-size="11" text-anchor="middle" fill="#4b5563">12</text>
  <line x1="86" y1="342" x2="824" y2="342" stroke="#111827" stroke-width="1.2"/>
  <line x1="86" y1="78" x2="86" y2="342" stroke="#111827" stroke-width="1.2"/>
  <text x="455.0" y="396" font-family="sans-serif" font-size="13" text-anchor="middle" fill="#111827">Epoch</text>
  <text transform="translate(22 210.0) rotate(-90)" font-family="sans-serif" font-size="13" text-anchor="middle" fill="#111827">Churned Providers</text>
  <polyline fill="none" stroke="#2563eb" stroke-width="2.5" points="86.0,342.0 153.1,342.0 220.2,342.0 287.3,342.0 354.4,279.7 421.5,217.5 488.5,155.2 555.6,92.9 622.7,92.9 689.8,92.9 756.9,92.9 824.0,92.9" />
  <polyline fill="none" stroke="#d97706" stroke-width="2.5" points="86.0,342.0 153.1,342.0 220.2,342.0 287.3,342.0 354.4,279.7 421.5,279.7 488.5,279.7 555.6,279.7 622.7,342.0 689.8,342.0 756.9,342.0 824.0,342.0" />
</svg>
