<svg xmlns="http://www.w3.org/2000/svg" width="860" height="420" viewBox="0 0 860 420">
  <rect width="100%" height="100%" fill="#ffffff"/>
  <text x="86" y="26" font-family="sans-serif" font-size="18" font-weight="700" fill="#111827">Repair Backlog</text>
  <line x1="86" y1="52" x2="116" y2="52" stroke="#2563eb" stroke-width="3"/>
  <text x="122" y="56" font-family="sans-serif" font-size="12" fill="#374151">Repair Backlog</text>

  <rect x="86" y="78" width="738" height="264" fill="#ffffff" stroke="#d1d5db"/>
  <line x1="86" y1="342.0" x2="824" y2="342.0" stroke="#e5e7eb" stroke-width="1"/><text x="76" y="346.0" font-family="sans-serif" font-size="11" text-anchor="end" fill="#4b5563">0.0000</text><line x1="86" y1="276.0" x2="824" y2="276.0" stroke="#e5e7eb" stroke-width="1"/><text x="76" y="280.0" font-family="sans-serif" font-size="11" text-anchor="end" fill="#4b5563">0.2650</text><line x1="86" y1="210.0" x2="824" y2="210.0" stroke="#e5e7eb" stroke-width="1"/><text x="76" y="214.0" font-family="sans-serif" font-size="11" text-anchor="end" fill="#4b5563">0.5300</text><line x1="86" y1="144.0" x2="824" y2="144.0" stroke="#e5e7eb" stroke-width="1"/><text x="76" y="148.0" font-family="sans-serif" font-size="11" text-anchor="end" fill="#4b5563">0.7950</text><line x1="86" y1="78.0" x2="824" y2="78.0" stroke="#e5e7eb" stroke-width="1"/><text x="76" y="82.0" font-family="sans-serif" font-size="11" text-anchor="end" fill="#4b5563">1.06</text>
  <line x1="86.0" y1="78" x2="86.0" y2="342" stroke="#f3f4f6" stroke-width="1"/><text x="86.0" y="364" font-family="sans-serif" font-size="11" text-anchor="middle" fill="#4b5563">1</text><line x1="191.4" y1="78" x2="191.4" y2="342" stroke="#f3f4f6" stroke-width="1"/><text x="191.4" y="364" font-family="sans-serif" font-size="11" text-anchor="middle" fill="#4b5563">2</text><line x1="402.3" y1="78" x2="402.3" y2="342" stroke="#f3f4f6" stroke-width="1"/><text x="402.3" y="364" font-family="sans-serif" font-size="11" text-anchor="middle" fill="#4b5563">4</text><line x1="507.7" y1="78" x2="507.7" y2="342" stroke="#f3f4f6" stroke-width="1"/><text x="507.7" y="364" font-family="sans-serif" font-size="11" text-anchor="middle" fill="#4b5563">5</text><line x1="718.6" y1="78" x2="718.6" y2="342" stroke="#f3f4f6" stroke-width="1"/><text x="718.6" y="364" font-family="sans-serif" font-size="11" text-anchor="middle" fill="#4b5563">7</text><line x1="824.0" y1="78" x2="824.0" y2="342" stroke="#f3f4f6" stroke-width="1"/><text x="824.0" y="364" font-family="sans-serif" font-size="11" text-anchor="middle" fill="#4b5563">8</text>
  <line x1="86" y1="342" x2="824" y2="342" stroke="#111827" stroke-width="1.2"/>
  <line x1="86" y1="78" x2="86" y2="342" stroke="#111827" stroke-width="1.2"/>
  <text x="455.0" y="396" font-family="sans-serif" font-size="13" text-anchor="middle" fill="#111827">Epoch</text>
  <text transform="translate(22 210.0) rotate(-90)" font-family="sans-serif" font-size="13" text-anchor="middle" fill="#111827">Repair Backlog</text>
  <polyline fill="none" stroke="#2563eb" stroke-width="2.5" points="86.0,342.0 191.4,342.0 296.9,342.0 402.3,342.0 507.7,342.0 613.1,342.0 718.6,342.0 824.0,342.0" />

</svg>
